<svg width="976" height="1380" viewBox="0 0 976 1380" fill="none" xmlns="http://www.w3.org/2000/svg">
<g opacity="0.25" clip-path="url(#clip0_1496_2080)">
<path d="M552.562 330.577C665.725 277.821 778.3 237.752 889.37 229.776C890.239 211.38 891.086 193.101 891.949 174.996C780.729 186.071 668.388 221.776 555.376 271.04C554.426 290.845 553.507 310.677 552.562 330.577Z" fill="#254AA5"/>
<path d="M890.589 271.204C786.711 276.853 681.431 312.853 575.527 361.677C574.606 381.386 573.662 401.169 572.742 420.995C678.741 369.724 784.18 330.72 887.928 327.372C888.829 308.517 889.72 289.779 890.589 271.204Z" fill="#F5AF0C"/>
<path d="M520.516 548.022C652.179 478.645 783.381 418.793 911.39 427.109C912.311 407.641 913.232 388.317 914.126 369.098C785.993 363.642 654.973 419.715 523.381 487.422C522.409 507.619 521.466 527.807 520.516 548.022Z" fill="#F5AF0C"/>
<path d="M922.954 573.391C922.004 593.368 921.06 613.44 920.111 633.608C640.303 594.777 342.413 939.666 62.5781 901.046L74.6293 842.767C351.725 873.266 646.343 532.478 922.954 573.391Z" fill="#EF3120"/>
<path d="M976 690.238C975.046 710.524 974.077 730.815 973.134 751.109C815.143 693.508 649.933 788.853 485.291 872.27C321.408 957.864 158.093 1031.58 0 994.231L11.9731 936.294C325.276 1025.19 663.465 585.658 976 690.238Z" fill="#EF3120"/>
<path d="M945.827 789.268C944.859 809.658 943.909 830.117 942.936 850.599C791.291 814.235 633.602 905.552 476.743 979.904C320.281 1057.43 164.615 1118.06 12.5859 1101.14L24.6403 1042.93C173.342 1064.29 326.191 997.965 479.605 919.132C636.646 840.999 794.335 749.779 945.827 789.268Z" fill="#EF3120"/>
<path d="M383.243 1261.46C382.351 1280.47 381.45 1299.39 380.558 1318.26C290.544 1344.75 200.998 1361.99 111.367 1380L122.32 1327.13C208.975 1311.81 295.892 1291.21 383.243 1261.46Z" fill="#217526"/>
<path d="M905.387 949.714C760.313 937.498 610.61 1023.23 461.958 1086.83C309.847 1156.35 158.821 1202.75 10.0078 1201.97L22.1154 1143.43C167.443 1151.82 315.685 1098.6 464.8 1026.39C613.684 957.878 763.458 870.44 908.354 886.926L905.387 949.714Z" fill="#217526"/>
<path d="M703.154 1094.31C609.77 1125.7 515.767 1170.38 422.249 1204.76C303.816 1250.43 186.146 1279.57 69.1172 1295.55L80.5566 1240.17C194.437 1228.73 309.361 1194.77 425.015 1145.78C518.734 1107.57 612.885 1059.52 706.303 1027.53L703.154 1094.31Z" fill="#217526"/>
<path d="M850.869 87.0439C850.052 104.306 849.233 121.731 848.413 139.357C763.701 152.661 678.396 178.312 592.734 211.862L595.447 154.119C680.956 123.984 766.102 101.535 850.869 87.0439Z" fill="#254AA5"/>
<path d="M709.506 28.2716C750.003 18.356 790.481 9.26437 830.982 0C830.829 16.8489 830.675 33.8711 830.523 51.0592C789.379 59.4919 748.214 69.0887 707.047 80.2416L709.506 28.2716Z" fill="#254AA5"/>
<path d="M892.269 526.06C728.185 518.274 558.373 632.723 389.992 716.233L392.887 655.029C561.265 571.317 730.927 460.531 895.034 467.198C894.132 486.691 893.189 506.304 892.269 526.06Z" fill="#F5AF0C"/>
</g>
<defs>
<clipPath id="clip0_1496_2080">
<rect width="976" height="1380" fill="white"/>
</clipPath>
</defs>
</svg>
